HIERARCHY
ROOT root
{
	OFFSET	0	13.1	24.9
	CHANNELS 6  Xposition Yposition Zposition Xrotation Yrotation Zrotation
	JOINT spine_1
	{
		OFFSET	0	9.99999	0
		CHANNELS 3  Xrotation Yrotation Zrotation
		JOINT spine_2
		{
			OFFSET	0	112	-10
			CHANNELS 3  Xrotation Yrotation Zrotation
			JOINT spine_3
			{
				OFFSET	0	206.5	19.3
				CHANNELS 3  Xrotation Yrotation Zrotation
				JOINT spine_4
				{
					OFFSET	0	110.4	14.6
					CHANNELS 3  Xrotation Yrotation Zrotation
					JOINT neck_1
					{
						OFFSET	0	71.8	-50.3
						CHANNELS 3  Xrotation Yrotation Zrotation
						JOINT neck_2
						{
							OFFSET	0	86.2	-25.8
							CHANNELS 3  Xrotation Yrotation Zrotation
							JOINT head_ee
							{
								OFFSET	0	179.8	-8.7
								CHANNELS 3  Xrotation Yrotation Zrotation
								End Site
								{
									OFFSET	1	0	0
								}
							}
						}
					}
					JOINT left_clavicle
					{
						OFFSET	-43.2	22.4	-70.8
						CHANNELS 3  Xrotation Yrotation Zrotation
						JOINT left_shoulder
						{
							OFFSET	-93.9	-5.79999	48.7
							CHANNELS 3  Xrotation Yrotation Zrotation
							JOINT left_elbow
							{
								OFFSET	-291.4	-30.8	15.2
								CHANNELS 3  Xrotation Yrotation Zrotation
								JOINT left_lowarm_twist
								{
									OFFSET	-110.7	-3.89999	13.6
									CHANNELS 3  Xrotation Yrotation Zrotation
									JOINT left_hand
									{
										OFFSET	-110.7	-3.89999	13.6
										CHANNELS 3  Xrotation Yrotation Zrotation
										JOINT left_ee
										{
											OFFSET	-80.8	-5.10001	12.1
											CHANNELS 3  Xrotation Yrotation Zrotation
											End Site
											{
												OFFSET	1	0	0
											}
										}
									}
								}
							}
						}
					}
					JOINT right_clavicle
					{
						OFFSET	43.2	22.4	-70.8
						CHANNELS 3  Xrotation Yrotation Zrotation
						JOINT right_shoulder
						{
							OFFSET	93.9	-5.79999	48.7
							CHANNELS 3  Xrotation Yrotation Zrotation
							JOINT right_elbow
							{
								OFFSET	291.4	-30.8	15.2
								CHANNELS 3  Xrotation Yrotation Zrotation
								JOINT right_lowarm_twist
								{
									OFFSET	110.7	-3.89999	13.6
									CHANNELS 3  Xrotation Yrotation Zrotation
									JOINT right_hand
									{
										OFFSET	110.7	-3.89999	13.6
										CHANNELS 3  Xrotation Yrotation Zrotation
										JOINT right_ee
										{
											OFFSET	80.8	-5.10001	12.1
											CHANNELS 3  Xrotation Yrotation Zrotation
											End Site
											{
												OFFSET	1	0	0
											}
										}
									}
								}
							}
						}
					}
				}
			}
		}
	}
	JOINT left_hip
	{
		OFFSET	-82.8	-127.5	0.300001
		CHANNELS 3  Xrotation Yrotation Zrotation
		JOINT left_knee
		{
			OFFSET	-28.2	-396.7	2.2
			CHANNELS 3  Xrotation Yrotation Zrotation
			JOINT left_ankle
			{
				OFFSET	-11.7	-411.3	35.4
				CHANNELS 3  Xrotation Yrotation Zrotation
				JOINT left_toes
				{
					OFFSET	0	-60	-88.6
					CHANNELS 3  Xrotation Yrotation Zrotation
					JOINT left_foot_ee
					{
						OFFSET	-22.5	-16.5	-42.2
						CHANNELS 3  Xrotation Yrotation Zrotation
						End Site
						{
							OFFSET	1	0	0
						}
					}
				}
			}
		}
	}
	JOINT right_hip
	{
		OFFSET	82.8	-127.5	0.300001
		CHANNELS 3  Xrotation Yrotation Zrotation
		JOINT right_knee
		{
			OFFSET	28.2	-396.7	2.2
			CHANNELS 3  Xrotation Yrotation Zrotation
			JOINT right_ankle
			{
				OFFSET	11.7	-411.3	35.4
				CHANNELS 3  Xrotation Yrotation Zrotation
				JOINT right_toes
				{
					OFFSET	0	-60	-88.6
					CHANNELS 3  Xrotation Yrotation Zrotation
					JOINT right_foot_ee
					{
						OFFSET	22.5	-16.5	-42.2
						CHANNELS 3  Xrotation Yrotation Zrotation
						End Site
						{
							OFFSET	1	0	0
						}
					}
				}
			}
		}
	}
}
MOTION
Frames: 6
Frame Time: 0.02
2121.11 686.333 -611.527 -15.5001 -80.6171 -7.92052 -0.385609 -0.20597 -2.2951 -0.382681 -0.0595496 -2.30355 -0.378621 0.4411 -2.26172 -0.385751 0.078466 -2.30298 -6.66509 2.32959 4.29282 -6.61467 1.19492 4.7635 -0.0 0.0 -0.0 0.573846 6.56142 1.81197 -27.8033 -37.4493 75.0785 0.810725 -21.8807 0.156716 56.1742 -1.44541 -6.74401 -2.65785 28.654 -3.16117 -0.0 0.0 -0.0 3.97897 4.44032 -7.42997 20.3538 27.2168 -54.0613 2.47003 50.7338 -1.17125 34.2326 0.0837456 4.30783 2.67411 13.5869 -12.2947 0.0 0.0 0.0 31.319 -25.5001 -2.60859 -7.23748 0.229626 1.08627 0.72653 24.6666 -0.110569 18.7534 -0.0 -0.0 -0.0 0.0 -0.0 -18.6731 -3.71182 -14.134 2.80046 0.125412 0.411367 28.6519 -1.9492 3.75291 25.5148 -0.0 -0.0 0.0 0.0 0.0 
2136.53 688.44 -617.617 -15.8428 -81.4416 -8.09 -0.31653 -0.129005 -2.50823 -0.31303 0.0308099 -2.51135 -0.31259 0.571657 -2.44566 -0.320893 0.178364 -2.5052 -7.24527 2.50251 4.60039 -7.1873 1.34462 5.1031 -0.0 0.0 -0.0 0.728926 7.4589 2.18287 -27.2307 -37.2974 74.8633 0.803668 -21.708 0.154096 56.5276 -1.47472 -6.77852 -2.82676 28.605 -4.09856 -0.0 0.0 -0.0 4.21409 3.91202 -7.93215 19.7418 26.3113 -53.907 2.51286 51.2153 -1.20452 32.4577 0.016126 4.09129 3.23362 14.473 -15.7414 0.0 0.0 0.0 33.0767 -25.4081 -1.49314 -12.6202 0.310563 1.90795 -1.25719 26.4818 0.194032 19.4819 -0.0 -0.0 -0.0 0.0 -0.0 -18.8413 -3.43482 -13.6133 1.65379 0.0716261 0.243659 28.5701 -1.15118 3.74827 24.7165 -0.0 -0.0 0.0 0.0 0.0 
2156.25 690.926 -624.254 -14.4804 -81.8627 -6.41173 -0.344826 -0.21747 -2.63008 -0.340979 -0.0497299 -2.63858 -0.336571 0.52149 -2.58704 -0.345894 0.106519 -2.6369 -7.67756 2.98625 5.03128 -7.60878 1.97828 5.63175 -0.0 0.0 -0.0 1.21362 7.82775 3.07919 -26.8024 -37.22 74.3964 0.727677 -19.8227 0.12715 56.3219 -1.45763 -6.75845 -2.81021 28.7188 -3.94758 -0.0 0.0 -0.0 3.8519 3.51551 -7.23141 19.3781 27.1341 -54.6435 2.43739 50.3601 -1.14605 31.4067 -0.0207388 3.96212 2.79387 11.9717 -13.8664 0.0 0.0 0.0 30.6842 -25.2577 -1.75446 -11.7131 0.302339 1.76901 -2.81994 22.7108 0.428355 18.1964 -0.0 -0.0 -0.0 0.0 -0.0 -18.7784 -3.12663 -13.0768 -1.53109 -0.0600079 -0.227299 26.3041 -0.770958 3.4979 24.7723 -0.0 -0.0 0.0 0.0 0.0 
2173.03 692.499 -633.608 -12.0644 -80.7665 -4.2649 -0.210528 -0.382067 -2.67319 -0.206577 -0.211253 -2.69207 -0.194372 0.36854 -2.67509 -0.204353 -0.0584055 -2.6997 -8.88446 3.08283 5.77767 -8.79275 1.76381 6.39187 -0.0 0.0 -0.0 1.33209 8.89806 3.38349 -24.5276 -38.4146 74.2565 0.689319 -18.8535 0.114448 55.9223 -1.42464 -6.71929 -3.03994 28.5743 -5.26806 -0.0 0.0 -0.0 2.81205 3.22755 -5.18392 18.7865 26.7596 -55.1591 2.43166 50.2939 -1.14164 32.3923 0.0137627 4.08327 2.73804 9.25408 -14.7095 0.0 0.0 0.0 30.7409 -24.7128 -0.188666 -12.8192 0.312073 1.93845 -6.31367 21.8025 0.961322 19.72 -0.0 -0.0 -0.0 0.0 -0.0 -18.6555 -3.06424 -12.1625 -4.52882 -0.159792 -0.676489 25.5253 -0.386829 3.4113 24.4543 -0.0 -0.0 0.0 0.0 0.0 
2187.71 694.883 -639.233 -11.3479 -80.8951 -3.67167 -0.220986 -0.425711 -2.56658 -0.21736 -0.261587 -2.58844 -0.203353 0.297572 -2.58456 -0.212657 -0.114203 -2.59911 -9.63636 2.86636 5.41023 -9.55587 1.69468 5.98251 -0.0 0.0 -0.0 1.67807 10.1356 4.08654 -23.5079 -39.2029 73.3357 0.570935 -15.7924 0.0791856 56.1798 -1.44587 -6.74455 -3.02337 28.3841 -5.28447 -0.0 0.0 -0.0 2.26936 3.0991 -4.11942 17.75 25.6016 -55.5601 2.57893 51.9389 -1.25629 33.022 0.0368949 4.16036 2.69646 7.85636 -15.0382 0.0 0.0 0.0 30.078 -24.2837 0.0883292 -13.9839 0.318786 2.11702 -9.66825 21.6801 1.47862 18.7723 -0.0 -0.0 -0.0 0.0 -0.0 -18.3755 -2.14267 -11.2773 -6.79832 -0.219621 -1.01962 22.755 -0.56708 3.08488 24.3777 -0.0 -0.0 0.0 0.0 0.0 
2209.37 698.224 -644.025 -10.2578 -80.0212 -2.53627 -0.215133 -0.554546 -2.64273 -0.21133 -0.38532 -2.67264 -0.190892 0.193984 -2.69328 -0.200938 -0.233646 -2.69013 -9.93918 3.08679 6.02955 -9.83889 1.72143 6.6416 -0.0 0.0 -0.0 1.98201 11.1973 4.68496 -23.9503 -40.5556 70.8326 0.653619 -17.9412 0.10318 56.2155 -1.44882 -6.74805 -3.69586 28.6958 -8.76213 -0.0 0.0 -0.0 1.55603 2.9589 -2.722 15.7695 25.3561 -55.6005 2.63204 52.504 -1.29826 33.0217 0.0368817 4.16031 2.7499 6.54956 -15.9828 0.0 0.0 0.0 30.0308 -24.0236 0.503026 -16.9257 0.31957 2.56833 -12.1046 21.2558 1.85354 19.1752 -0.0 -0.0 -0.0 0.0 -0.0 -18.5091 -2.1078 -10.8373 -8.9252 -0.263309 -1.34305 18.6564 -0.25065 2.58189 22.4409 -0.0 -0.0 0.0 0.0 0.0 
